<?xml version="1.0" encoding="UTF-8"?>
<svg id="Capa_2" data-name="Capa 2" xmlns="http://www.w3.org/2000/svg" viewBox="0 0 862.2 177.18">
  <defs>
    <style>
      .cls-1 {
        fill: #121212;
      }
    </style>
  </defs>
  <g id="Capa_4" data-name="Capa 4">
    <g>
      <g>
        <path class="cls-1" d="M331.15,131.9h-28.16l-47.09-71.3v71.3h-28.16V16.3h28.16l47.09,71.63V16.3h28.16v115.6Z"/>
        <path class="cls-1" d="M353.63,26.1c-3.13-2.91-4.69-6.5-4.69-10.79s1.56-8.04,4.69-10.95C356.76,1.46,360.79,0,365.73,0s8.81,1.46,11.94,4.36c3.13,2.91,4.69,6.56,4.69,10.95s-1.56,7.88-4.69,10.79c-3.13,2.91-7.11,4.36-11.94,4.36s-8.97-1.45-12.1-4.36Zm26.1,13.91v91.88h-28.16V40.01h28.16Z"/>
        <path class="cls-1" d="M452.1,42.65c4.88,2.63,8.64,6.09,11.28,10.37v-13.01h28.16v91.72c0,8.45-1.67,16.11-5.02,22.97-3.35,6.86-8.45,12.32-15.31,16.38-6.86,4.06-15.4,6.09-25.61,6.09-13.61,0-24.65-3.21-33.1-9.63-8.46-6.42-13.28-15.12-14.49-26.1h27.83c.88,3.51,2.96,6.28,6.26,8.32,3.29,2.03,7.35,3.05,12.18,3.05,5.82,0,10.46-1.68,13.92-5.02,3.46-3.35,5.19-8.7,5.19-16.06v-13.01c-2.75,4.28-6.53,7.77-11.36,10.46-4.83,2.69-10.48,4.03-16.96,4.03-7.58,0-14.44-1.95-20.58-5.85-6.15-3.9-11.01-9.44-14.57-16.63-3.57-7.19-5.35-15.5-5.35-24.95s1.78-17.73,5.35-24.87c3.57-7.13,8.42-12.62,14.57-16.47,6.15-3.84,13.01-5.76,20.58-5.76,6.48,0,12.16,1.32,17.04,3.95Zm5.43,26.68c-3.9-4.06-8.64-6.09-14.24-6.09s-10.35,2-14.24,6.01c-3.9,4.01-5.85,9.52-5.85,16.55s1.95,12.6,5.85,16.71c3.9,4.12,8.65,6.17,14.24,6.17s10.35-2.03,14.24-6.09c3.9-4.06,5.85-9.6,5.85-16.63s-1.95-12.57-5.85-16.63Z"/>
        <path class="cls-1" d="M593.79,49.48c6.37,6.97,9.55,16.55,9.55,28.73v53.68h-27.99v-49.89c0-6.15-1.59-10.92-4.78-14.33-3.19-3.4-7.47-5.1-12.84-5.1s-9.66,1.7-12.84,5.1c-3.19,3.4-4.78,8.18-4.78,14.33v49.89h-28.16V10.04h28.16V52.36c2.85-4.06,6.75-7.3,11.69-9.72,4.94-2.41,10.48-3.62,16.63-3.62,10.54,0,18.99,3.49,25.36,10.46Z"/>
        <path class="cls-1" d="M674.15,108.02v23.88h-14.33c-10.21,0-18.17-2.5-23.88-7.49-5.71-4.99-8.56-13.14-8.56-24.45V63.4h-11.2v-23.38h11.2V17.62h28.16v22.39h18.44v23.38h-18.44v36.89c0,2.75,.66,4.72,1.98,5.93,1.32,1.21,3.51,1.81,6.59,1.81h10.04Z"/>
        <path class="cls-1" d="M717.95,110.16h36.89v21.74h-65.04V16.3h28.16V110.16Z"/>
        <path class="cls-1" d="M862.2,40.01l-57.63,135.52h-30.3l21.08-46.77-37.38-88.76h31.45l21.24,57.47,21.08-57.47h30.46Z"/>
      </g>
      <g>
        <path class="cls-1" d="M159.01,129.05c-6.27,.84-12.72,2.3-19.2,2.47-37.41,.98-65.28-15.08-83.55-47.73-2.23-3.98-1.45-7.23,1.78-8.93,3.17-1.68,6.21-.38,8.37,3.62,12.07,22.26,30.54,35.8,55.43,40.34,15.7,2.86,30.8,.53,45.31-6.1,1.75-.8,3.93-1.41,5.76-1.13,3.79,.58,5.14,4.47,3.33,8.84-6.92,16.74-17.84,30.31-32.75,40.57C87.46,199.57,10.19,165.48,.86,98.09-4.76,57.49,17.59,17.82,55.27,1.57c.66-.28,1.31-.56,1.97-.84,2.51-1.09,4.97-1.08,6.93,.97,1.97,2.06,1.64,4.41,.68,6.97-2.3,6.11-4.43,12.28-6.43,18.49-.69,2.13-.77,4.45-1.16,6.68-.6,3.37-3.21,5.61-6.1,5.28-2.92-.34-5.07-3.02-4.66-6.52,.56-4.7,1.52-9.36,2.28-13.91C29.45,28.87,10.69,57.15,12.47,88.59c2.17,38.5,28.64,68.66,66.35,75.4,36.75,6.56,67.87-13.66,80.19-34.95Z"/>
        <path class="cls-1" d="M69.07,51.29c8.93,0,17.85-.01,26.78,0,4.51,.01,7.12,2.1,7.16,5.66,.04,3.58-2.58,5.79-7.03,5.79-18.21,.02-36.42,.02-54.63,0-4.41,0-7.06-2.27-6.98-5.85,.07-3.47,2.6-5.59,6.85-5.6,9.28-.03,18.57,0,27.85,0Z"/>
        <path class="cls-1" d="M114.43,39.87c-5.35,0-10.7,.03-16.06,0-4.19-.03-6.75-2.21-6.79-5.67-.04-3.49,2.5-5.76,6.67-5.78,10.82-.04,21.65-.04,32.47,0,4.11,.02,6.69,2.36,6.62,5.83-.07,3.33-2.57,5.56-6.49,5.6-5.47,.06-10.94,.01-16.41,.01Z"/>
        <path class="cls-1" d="M148.66,85.62c5.47,0,10.94-.04,16.41,.01,4.1,.04,6.68,2.38,6.6,5.86-.08,3.33-2.59,5.56-6.51,5.58-10.94,.04-21.88,.05-32.83,0-3.89-.02-6.39-2.33-6.41-5.68-.02-3.38,2.45-5.7,6.33-5.75,5.47-.07,10.94-.02,16.41-.02Z"/>
        <path class="cls-1" d="M154.51,51.29c3.57,0,7.13-.05,10.7,.01,3.91,.06,6.4,2.29,6.45,5.64,.05,3.35-2.45,5.76-6.29,5.79-7.25,.07-14.5,.07-21.75,0-3.83-.04-6.33-2.46-6.27-5.81,.06-3.36,2.53-5.56,6.46-5.62,3.56-.06,7.13-.01,10.7-.01Z"/>
        <path class="cls-1" d="M97.28,74.18c3.57,0,7.13-.05,10.7,.01,3.91,.06,6.41,2.28,6.47,5.62,.06,3.35-2.44,5.77-6.27,5.81-7.25,.07-14.5,.07-21.75,0-3.83-.04-6.34-2.45-6.28-5.8,.05-3.36,2.53-5.57,6.45-5.63,3.56-.06,7.13-.01,10.7-.01Z"/>
      </g>
    </g>
  </g>
</svg>