<?xml version="1.0" encoding="UTF-8"?>
<svg id="Capa_2" data-name="Capa 2" xmlns="http://www.w3.org/2000/svg" viewBox="0 0 278.71 278.94">
  <defs>
    <style>
      .cls-1 {
        fill: #f0f0f0;
      }
    </style>
  </defs>
  <g id="Capa_4_copia_3" data-name="Capa 4 copia 3">
    <g>
      <path class="cls-1" d="M250.32,203.15c-9.88,1.32-20.02,3.63-30.22,3.89-58.9,1.54-102.77-23.74-131.53-75.14-3.51-6.27-2.28-11.38,2.8-14.06,5-2.64,9.77-.59,13.18,5.69,19,35.04,48.08,56.36,87.27,63.51,24.72,4.51,48.5,.83,71.33-9.61,2.75-1.26,6.18-2.22,9.06-1.78,5.97,.91,8.09,7.04,5.25,13.92-10.9,26.36-28.08,47.71-51.56,63.88-88.21,60.72-209.85,7.05-224.54-99.03C-7.5,90.5,27.7,28.06,87.01,2.46c1.03-.45,2.07-.88,3.1-1.33,3.96-1.72,7.82-1.7,10.92,1.53,3.11,3.24,2.59,6.94,1.07,10.98-3.61,9.61-6.97,19.33-10.12,29.11-1.08,3.35-1.21,7.01-1.83,10.51-.94,5.31-5.05,8.84-9.61,8.31-4.59-.53-7.98-4.76-7.33-10.26,.87-7.4,2.39-14.73,3.59-21.9-30.44,16.02-59.97,60.55-57.18,110.05,3.42,60.61,45.09,108.1,104.46,118.7,57.85,10.33,106.84-21.5,126.24-55.02Z"/>
      <path class="cls-1" d="M108.73,80.75c14.05,0,28.1-.02,42.16,0,7.1,.02,11.2,3.31,11.27,8.92,.07,5.63-4.07,9.11-11.07,9.11-28.67,.03-57.33,.03-86,0-6.94,0-11.11-3.58-10.99-9.2,.12-5.46,4.1-8.8,10.79-8.82,14.61-.05,29.23-.01,43.84-.02Z"/>
      <path class="cls-1" d="M180.14,62.77c-8.43,0-16.85,.05-25.28-.01-6.6-.05-10.63-3.48-10.69-8.92-.06-5.5,3.93-9.07,10.5-9.09,17.04-.06,34.08-.06,51.12,0,6.47,.02,10.53,3.72,10.42,9.19-.11,5.25-4.05,8.76-10.22,8.82-8.61,.09-17.23,.02-25.84,.02Z"/>
      <path class="cls-1" d="M234.03,134.8c8.61,0,17.23-.06,25.84,.02,6.45,.06,10.51,3.75,10.38,9.22-.13,5.24-4.07,8.76-10.25,8.78-17.23,.07-34.45,.07-51.68,0-6.13-.03-10.06-3.67-10.1-8.94-.04-5.31,3.85-8.97,9.97-9.05,8.61-.11,17.23-.03,25.84-.03Z"/>
      <path class="cls-1" d="M243.25,80.75c5.61,0,11.23-.07,16.84,.02,6.15,.1,10.08,3.6,10.16,8.87,.08,5.27-3.86,9.07-9.9,9.12-11.41,.11-22.83,.11-34.24,0-6.02-.06-9.97-3.88-9.88-9.15,.09-5.29,3.99-8.75,10.17-8.85,5.61-.09,11.23-.02,16.84-.02Z"/>
      <path class="cls-1" d="M153.15,116.78c5.61,0,11.23-.07,16.84,.02,6.15,.1,10.08,3.59,10.18,8.85,.09,5.27-3.85,9.08-9.88,9.14-11.41,.11-22.83,.11-34.24,0-6.03-.06-9.98-3.86-9.89-9.13,.08-5.29,3.98-8.76,10.16-8.86,5.61-.09,11.23-.02,16.84-.02Z"/>
    </g>
  </g>
</svg>